<svg width="34" height="34" viewBox="0 0 34 34" fill="none" xmlns="http://www.w3.org/2000/svg">
<circle cx="17" cy="17" r="17" fill="white"/>
<path d="M9.66666 10.6666H12.4167L14.25 8.83325H19.75L21.5833 10.6666H24.3333C24.8196 10.6666 25.2859 10.8597 25.6297 11.2036C25.9735 11.5474 26.1667 12.0137 26.1667 12.4999V23.4999C26.1667 23.9861 25.9735 24.4525 25.6297 24.7963C25.2859 25.1401 24.8196 25.3333 24.3333 25.3333H9.66666C9.18043 25.3333 8.71412 25.1401 8.3703 24.7963C8.02648 24.4525 7.83333 23.9861 7.83333 23.4999V12.4999C7.83333 12.0137 8.02648 11.5474 8.3703 11.2036C8.71412 10.8597 9.18043 10.6666 9.66666 10.6666M17 13.4166C15.7844 13.4166 14.6186 13.8995 13.7591 14.759C12.8995 15.6186 12.4167 16.7843 12.4167 17.9999C12.4167 19.2155 12.8995 20.3813 13.7591 21.2408C14.6186 22.1004 15.7844 22.5833 17 22.5833C18.2156 22.5833 19.3814 22.1004 20.2409 21.2408C21.1004 20.3813 21.5833 19.2155 21.5833 17.9999C21.5833 16.7843 21.1004 15.6186 20.2409 14.759C19.3814 13.8995 18.2156 13.4166 17 13.4166M17 15.2499C17.7293 15.2499 18.4288 15.5396 18.9445 16.0554C19.4603 16.5711 19.75 17.2706 19.75 17.9999C19.75 18.7293 19.4603 19.4287 18.9445 19.9445C18.4288 20.4602 17.7293 20.7499 17 20.7499C16.2706 20.7499 15.5712 20.4602 15.0555 19.9445C14.5397 19.4287 14.25 18.7293 14.25 17.9999C14.25 17.2706 14.5397 16.5711 15.0555 16.0554C15.5712 15.5396 16.2706 15.2499 17 15.2499V15.2499Z" fill="black"/>
</svg>
