<svg width="40" height="40" viewBox="0 0 40 40" fill="none" xmlns="http://www.w3.org/2000/svg">
<path d="M28.3327 30C26.4827 30 24.9993 31.4834 24.9993 33.3334C24.9993 34.2174 25.3505 35.0653 25.9757 35.6904C26.6008 36.3155 27.4486 36.6667 28.3327 36.6667C29.2167 36.6667 30.0646 36.3155 30.6897 35.6904C31.3148 35.0653 31.666 34.2174 31.666 33.3334C31.666 31.4834 30.166 30 28.3327 30ZM1.66602 3.33337V6.66671H4.99935L10.9993 19.3167L8.73268 23.4C8.48268 23.8667 8.33268 24.4167 8.33268 25C8.33268 25.8841 8.68387 26.7319 9.30899 27.3571C9.93411 27.9822 10.782 28.3334 11.666 28.3334H31.666V25H12.366C12.2555 25 12.1495 24.9561 12.0714 24.878C11.9932 24.7999 11.9493 24.6939 11.9493 24.5834C11.9493 24.5 11.966 24.4334 11.9993 24.3834L13.4993 21.6667H25.916C27.166 21.6667 28.266 20.9667 28.8327 19.95L34.7993 9.16671C34.916 8.90004 34.9993 8.61671 34.9993 8.33337C34.9993 7.89135 34.8238 7.46742 34.5112 7.15486C34.1986 6.8423 33.7747 6.66671 33.3327 6.66671H8.68268L7.11602 3.33337M11.666 30C9.81602 30 8.33268 31.4834 8.33268 33.3334C8.33268 34.2174 8.68387 35.0653 9.30899 35.6904C9.93411 36.3155 10.782 36.6667 11.666 36.6667C12.5501 36.6667 13.3979 36.3155 14.023 35.6904C14.6482 35.0653 14.9993 34.2174 14.9993 33.3334C14.9993 31.4834 13.4993 30 11.666 30Z" fill="#776B62"/>
</svg>
