<svg width="35" height="32" viewBox="0 0 35 32" fill="none" xmlns="http://www.w3.org/2000/svg">
<path d="M26.6667 18.3333H30V23.3333H35V26.6667H30V31.6667H26.6667V26.6667H21.6667V23.3333H26.6667V18.3333ZM16.6667 0C25.8333 0 33.3333 5.96667 33.3333 13.3333C33.3333 14.3 33.2 15.2333 32.9667 16.1333C31.5833 15.4167 30 15 28.3333 15C22.8167 15 18.3333 19.4833 18.3333 25L18.4667 26.5833L16.6667 26.6667C14.6 26.6667 12.6167 26.3667 10.7833 25.8333C5.91667 30 0 30 0 30C3.88333 26.1167 4.5 23.5 4.58333 22.5C1.75 20.1167 0 16.9 0 13.3333C0 5.96667 7.5 0 16.6667 0Z" fill="#776B62"/>
</svg>
